<?xml version="1.0" encoding="UTF-8"?>
<svg id="Layer_2" data-name="Layer 2" xmlns="http://www.w3.org/2000/svg" viewBox="0 0 1250 1250">
  <g id="Layer_1-2" data-name="Layer 1">
    <g>
      <path d="M539.04,8.9c100.76-.44,201.58-.08,302.18.91,106.81,1.05,206.85-11.01,296.49,58.57,65.98,51.21,99.13,128.78,103.2,211.59,4.12,83.8-.24,174.19-.11,258.77.09,57.52.1,115.63,0,173.15-.13,83.87,4.08,173.2.11,256.33-7.96,166.69-127.03,272.09-292.22,271.47H305.58c-145.64,1.21-265.42-81.63-289.52-229.01-5.56-33.98-4.36-63.47-5.02-97.47-3.77-193.64-4.6-393.21,0-586.77.34-14.21-.68-28.55-.04-42.74C18.38,121.39,124.43,17.67,286.06,9.71c81.61-4.02,170.57-.45,252.97-.81ZM489.01,171.17c-100.86,2.52-190.84,10.83-258.38,94.23-51.22,63.26-55,134.38-57.33,212.32-2.91,97.4-2.91,196.56,0,293.95,2.41,80.7,6.88,155.6,62.77,219.08,67.83,77.03,148.38,83.73,245.31,86.56,95.43,2.78,192.44,2.78,287.84,0,74.45-2.17,143.49-4.73,206.02-50.2,102.25-74.34,102.65-186.16,104.6-301.69,1.18-69.79.05-140.25-1.33-209.87-2.16-109.1.27-202.68-87.78-280.69-64.7-57.33-143.13-60.5-225.18-62.77-91.58-2.54-184.8-3.21-276.55-.91Z"/>
      <path d="M476.81,252.92c97.43-2.88,201.23-2.28,298.52.91,57.06,1.87,116.32,2.46,161.73,42.03,57.27,49.9,57.56,113.72,59.72,184.3,2.92,95.36,2.92,192.51,0,287.84-1.85,60.5-1.62,122.54-44.47,170.27-50.01,55.71-116.03,55.22-185.52,57.28-93.39,2.77-188.37,2.77-281.74,0-65.48-1.94-130.37-1.23-179.89-50.71-44.06-44.03-47.8-98.33-50.1-157.32-3.53-90.39-3.04-181.44-1.22-271.98,1.54-76.49-4.94-161.4,57.28-217.25,45.33-40.69,107.67-43.66,165.7-45.38ZM858.66,328.52c-65.39,8.91-55.98,114.41,14.18,108.12,71.93-6.45,62.57-118.58-14.18-108.12ZM608.58,392.01c-175.05,11.61-274.3,209.94-179.61,358.25,86.03,134.74,282.15,144.98,380.44,18.28,124.24-160.14.69-389.9-200.83-376.53Z"/>
      <path d="M611.03,473.77c121.76-9.97,206.84,117.3,146.87,224.95-57.11,102.51-205.86,103.29-263.96,1.22-53.83-94.58,8.46-217.28,117.09-226.17Z"/>
    </g>
  </g>
</svg>