<?xml version="1.0" encoding="UTF-8"?>
<svg id="Layer_2" data-name="Layer 2" xmlns="http://www.w3.org/2000/svg" viewBox="0 0 1250 1250">
  <g id="Layer_1-2" data-name="Layer 1">
    <path d="M35.56,21.28C43.95,13.83,71.36,3.51,82.55,2.56h1082.3c41.39,5,74.05,34.98,81.12,76.35,2.25,363.78,2.65,728.24-.2,1091.98-7.62,41.05-39.48,71.1-80.92,76.55H85.14c-42.39-4.57-75.26-35.65-82.41-77.65C.48,806.01.08,441.56,2.93,77.81c4.35-22.1,15.97-41.74,32.63-56.53ZM265.06,176.14c-38.69,4.11-75.43,36.74-86.49,73.58-30.42,101.31,88.34,181.24,169.34,113.52,81.66-68.27,24.59-198.52-82.85-187.1ZM1061.39,1061.2l.06-358.79c-4.79-94.78-25.13-197.62-125.56-232.38-84.81-29.35-194.7-17.05-252.97,56.7-3.61,4.56-12.78,20.9-15.02,22.73-2,1.64-3.42,1.51-5.83,1.32v-80.73h-174.3v591.15h182.1l-.05-309.3c3.34-78.97,27.81-139.42,117.83-136.08,69.56,2.59,86.46,56.24,90.39,116.55l-.05,328.83h183.4ZM370.71,470.05h-182.1v591.15h182.1V470.05Z"/>
  </g>
</svg>