<?xml version="1.0" encoding="UTF-8"?>
<svg id="Layer_2" data-name="Layer 2" xmlns="http://www.w3.org/2000/svg" viewBox="0 0 1250.68 875.49">
  <g id="Layer_1-2" data-name="Layer 1">
    <path d="M730.38,0c1.01,1.62,3.7.98,5.36.99,84.75.89,170.41,2.7,254.79,8.78,99.25,7.15,202.22,12.55,234.7,125.49,20.04,69.67,23.56,168.12,24.47,241.01.02,1.65-.63,4.34.99,5.35v112.24c-1.62,1.01-.98,3.7-.99,5.35-.65,62-4.3,126.93-13.81,188.22-5.67,36.52-12.25,70.96-34.18,101.49-40.54,56.43-94.28,65.15-159.43,71.91-111.76,11.59-227.37,12.27-339.72,13.66-1.65.02-4.34-.63-5.36.99h-142.52c-1.01-1.62-3.7-.98-5.36-.99-98.1-1.03-197.13-2.38-294.81-9.75-101.84-7.69-199.58-15.78-229.24-131.92C6.15,658.02,5.93,574.08,2.19,497.24l-1.99-22.9c.45-24.36-.61-48.85,0-73.2.6-23.8,2.62-48.7,3.89-72.72,3.42-64.34,6.67-176.3,39.25-231.11C84.84,27.5,150.72,19.55,225.21,12.69,322.35,3.75,425.09,1.31,522.45,0h207.93ZM501.95,251.81v371.86l322.14-185.46-322.14-186.41Z"/>
  </g>
</svg>